<?xml version="1.0" encoding="utf-8"?>
<!-- Generator: Adobe Illustrator 23.0.0, SVG Export Plug-In . SVG Version: 6.00 Build 0)  -->
<svg version="1.1" id="Capa_1" xmlns="http://www.w3.org/2000/svg" xmlns:xlink="http://www.w3.org/1999/xlink" x="0px" y="0px"
	 viewBox="0 0 231.9 137.3" style="enable-background:new 0 0 231.9 137.3;" xml:space="preserve">
<style type="text/css">
	.st0{fill:#EEE648;}
	.st1{fill:#fff;}
	.st2{fill-rule:evenodd;clip-rule:evenodd;fill:#fff;}
</style>
<g>
	<path class="st0" d="M71.3,27C71.3,5.1,86.8,0,108,0h16c21.2,0,36.7,5.1,36.7,27v14.6c0,21.9-15.5,27-36.7,27h-16
		c-21.2,0-36.7-5.1-36.7-27V27z M149.5,27.6c0-15.5-9.1-18.5-22.1-18.5h-22.8c-13,0-22.1,3-22.1,18.5v13.3
		c0,15.5,9.1,18.5,22.1,18.5h22.8c13,0,22.1-3,22.1-18.5V27.6z"/>
	<path class="st0" d="M178.9,98.5c0-6.4,4.6-7.9,10.8-7.9h4.7c6.3,0,10.8,1.5,10.8,7.9v4.3c0,6.4-4.6,7.9-10.8,7.9h-4.7
		c-6.3,0-10.8-1.5-10.8-7.9V98.5z M201.9,98.7c0-4.6-2.7-5.5-6.5-5.5h-6.7c-3.8,0-6.5,0.9-6.5,5.5v3.9c0,4.6,2.7,5.4,6.5,5.4h6.7
		c3.8,0,6.5-0.9,6.5-5.4V98.7z"/>
	<g>
		<path class="st1" d="M0,82.6h3.7l9.7,24.3l9.5-24.3h4.8l9.4,24.4l9.8-24.4h3.7l-11,27.8h-4.8L25.4,86L16,110.4h-5L0,82.6z"/>
		<path class="st1" d="M53.1,82.6h3.3v11.6h0.1c1.2-3,3.8-3.7,7.9-3.7h4.7c6.2,0,8.1,3.1,8.1,6.6v13.2h-3.3V97.9
			c0-2.9-0.8-4.8-7.2-4.8h-0.8c-7.7,0-9.5,1.5-9.5,6.1v11.1h-3.3C53.1,110.3,53.1,82.6,53.1,82.6z"/>
		<path class="st1" d="M83.1,82.6h3.3v3.6h-3.3V82.6z M83.1,90.8h3.3v19.6h-3.3V90.8z"/>
		<path class="st1" d="M94,93.5h-4.3v-2.7H94v-4.6h3.3v4.6h13.1v2.7H97.3v9.7c0,3.6,1.3,4.8,4.9,4.8h1c4.4,0,5.1-0.9,5.1-5v-1.5h2.7
			v2.1c0,3.9-0.4,7-7.5,7h-1.8c-6.2,0-7.6-3-7.6-6.2L94,93.5L94,93.5z"/>
		<path class="st1" d="M113.2,98.4c0-7.1,4.9-7.9,9.6-7.9h5.3c5.9,0,10.2,1.5,10.2,8.5v2.2h-21.8v1.2c0,4.5,2.1,5.6,7.9,5.6h4.5
			c4.1,0,5.8-0.5,6-3.5h3.3v0.4c0,4.5-3.7,5.8-9.9,5.8h-6c-4.3,0-9.2-0.8-9.2-8L113.2,98.4L113.2,98.4z M135,97.2c0-2-1.5-4-6.9-4
			h-4.8c-5.2,0-6.4,0.8-6.7,5.3H135V97.2z"/>
		<path class="st1" d="M143.2,82.6h23.7c5.8,0,7.4,3,7.4,6.2v2.4c0,2-1.1,4-4.5,4.4v0.2c3,0.2,5.6,1.3,5.6,5.5v3.3
			c0,3.9-3.4,5.9-8.1,5.9h-24.1L143.2,82.6L143.2,82.6z M170.5,88.6c0-2.5-2.8-2.9-4-2.9h-19.6v8.9h19.4c2,0,4.1-0.7,4.1-3.4v-2.6
			H170.5z M171.6,101.6c0-3.5-1.9-4-5.3-4H147v9.7h19.9c3.5,0,4.8-1.3,4.8-3.7L171.6,101.6L171.6,101.6z"/>
		<path class="st1" d="M216.6,100l-9.3-9.1h4.5l7.1,7.2l7.1-7.2h4.5l-9.3,9.1l10.7,10.4h-4.7l-8.3-8.5l-8.3,8.5h-4.7L216.6,100z"/>
		<g>
			<path class="st2" d="M6.8,132.4v-2.5c0-1.8,0.5-3,1.4-3.8s2.4-1.1,4.4-1.1h2.8c2,0,3.5,0.4,4.4,1.2s1.4,2,1.4,3.7v2.6
				c0,1.8-0.5,3.1-1.5,3.8s-2.4,1.1-4.3,1.1h-2.7c-2,0-3.5-0.4-4.4-1.1C7.3,135.4,6.8,134.2,6.8,132.4z M8.6,130.1v2
				c0,1.4,0.2,2.3,0.8,2.8c0.5,0.5,1.4,0.8,2.6,0.8h3.9c1.2,0,2.1-0.3,2.7-0.8c0.6-0.5,0.9-1.4,0.9-2.7V130c0-1.2-0.3-2-0.8-2.6
				s-1.4-0.8-2.7-0.8h-3.7c-1.3,0-2.3,0.3-2.8,0.8C8.9,128,8.6,128.8,8.6,130.1z"/>
			<path class="st2" d="M53.7,125.2H56v-1c0-2.8,1.2-4.1,3.6-4.1h3.3v1.7h-3.1c-1.3,0-2,0.7-2,2v1.5h5.1v1.7h-5.1v10.3H56V127h-2.3
				V125.2z"/>
			<path class="st2" d="M94.6,125.2h2.3v-1c0-2.8,1.2-4.1,3.5-4.1h3.3v1.7h-3.1c-1.3,0-2,0.7-2,2v1.5h5.1v1.7h-5.1v10.3h-1.8V127
				h-2.3v-1.8H94.6z"/>
			<path class="st2" d="M136.8,125.2h1.8v12h-1.8V125.2z M136.8,120.2h1.8v2.2h-1.8V120.2z"/>
			<path class="st2" d="M183.8,132.8h1.7v0.5c0,1.4-0.3,2.4-1.1,3.1c-0.7,0.7-1.9,1-3.6,1h-4.1c-3,0-4.6-1.6-4.6-4.8V130
				c0-1.7,0.4-3,1.2-3.8s2.2-1.2,4.1-1.2h3.2c3.1,0,4.6,1.3,4.6,4v0.4l0,0h-1.7l0,0V129c0-0.9-0.2-1.5-0.7-1.9
				c-0.4-0.4-1.2-0.6-2.3-0.6H177c-1.2,0-2,0.3-2.4,0.8c-0.5,0.5-0.7,1.4-0.7,2.6v2.2c0,1.2,0.3,2.1,0.9,2.6
				c0.6,0.5,1.5,0.8,2.8,0.8h2.9c2.1,0,3.2-0.9,3.2-2.6v-0.1H183.8z"/>
			<path class="st2" d="M220.1,131.6v0.8c0,1.2,0.3,2.1,0.9,2.6c0.6,0.5,1.7,0.8,3.4,0.8h3c1.1,0,1.8-0.2,2.2-0.5
				c0.4-0.3,0.6-0.9,0.7-1.7h1.8v0.3c0,2.4-1.8,3.6-5.3,3.6h-3.4c-1.8,0-3.1-0.4-3.9-1.2c-0.8-0.8-1.2-2-1.2-3.8V130
				c0-1.6,0.4-2.9,1.1-3.7c0.8-0.8,2-1.2,3.7-1.2h3.4c1.9,0,3.2,0.4,4.1,1.2s1.3,2.1,1.3,4v1.3L220.1,131.6L220.1,131.6z
				 M220.1,129.9h10.2v-0.7c0-1.7-1.2-2.5-3.5-2.5h-0.2h-2.9c-1.6,0-2.5,0.3-2.9,1C220.3,128.2,220.1,129,220.1,129.9z"/>
		</g>
	</g>
</g>
</svg>
