<svg width="22" height="28" viewBox="0 0 22 28" fill="none" xmlns="http://www.w3.org/2000/svg">
<path d="M20.8802 7.88002L14.4402 1.44002C13.9468 0.946687 13.2668 0.666687 12.5602 0.666687H3.00016C1.5335 0.666687 0.34683 1.86669 0.34683 3.33335L0.333496 24.6667C0.333496 26.1334 1.52016 27.3334 2.98683 27.3334H19.0002C20.4668 27.3334 21.6668 26.1334 21.6668 24.6667V9.77335C21.6668 9.06669 21.3868 8.38669 20.8802 7.88002ZM14.7335 18H12.3335V22C12.3335 22.7334 11.7335 23.3334 11.0002 23.3334C10.2668 23.3334 9.66683 22.7334 9.66683 22V18H7.28016C6.68016 18 6.38683 17.28 6.8135 16.8667L10.5468 13.1467C10.8135 12.8934 11.2268 12.8934 11.4935 13.1467L15.2135 16.8667C15.6135 17.28 15.3202 18 14.7335 18ZM13.6668 10C12.9335 10 12.3335 9.40002 12.3335 8.66669V2.66669L19.6668 10H13.6668Z" fill="#ACACAC"/>
</svg>
