<svg width="734" height="768" viewBox="0 0 734 768" fill="none" xmlns="http://www.w3.org/2000/svg">
<path opacity="0.2" d="M0 302.013C0 57.047 173.378 0 410.515 0H589.485C826.622 0 1000 57.047 1000 302.013V465.324C1000 710.291 826.622 767.338 589.485 767.338H410.515C173.378 767.338 0 710.291 0 465.324V302.013ZM874.72 308.725C874.72 135.347 772.931 101.79 627.517 101.79H372.483C227.069 101.79 125.28 135.347 125.28 308.725V457.494C125.28 630.873 227.069 664.43 372.483 664.43H627.517C772.931 664.43 874.72 630.873 874.72 457.494V308.725Z" fill="#EEE648"/>
</svg>
